<?xml version="1.0" encoding="UTF-8"?>
<svg xmlns="http://www.w3.org/2000/svg" xmlns:xlink="http://www.w3.org/1999/xlink" width="287pt" height="287pt" viewBox="0 0 287 287" version="1.1">
<g id="surface1">
<path style=" stroke:none;fill-rule:nonzero;fill:rgb(0%,46.666667%,71.764706%);fill-opacity:1;" d="M 261.039062 0 L 25.960938 0 C 11.625 0 0 11.625 0 25.960938 L 0 261.039062 C 0 275.375 11.625 287 25.960938 287 L 261.039062 287 C 275.375 287 287 275.375 287 261.039062 L 287 25.960938 C 287 11.625 275.375 0 261.039062 0 Z M 88.808594 247.816406 C 88.808594 251.988281 85.425781 255.371094 81.253906 255.371094 L 49.09375 255.371094 C 44.921875 255.371094 41.539062 251.988281 41.539062 247.816406 L 41.539062 113 C 41.539062 108.828125 44.921875 105.445312 49.09375 105.445312 L 81.253906 105.445312 C 85.425781 105.445312 88.808594 108.828125 88.808594 113 Z M 65.175781 92.734375 C 48.300781 92.734375 34.621094 79.054688 34.621094 62.183594 C 34.621094 45.308594 48.300781 31.628906 65.175781 31.628906 C 82.046875 31.628906 95.726562 45.308594 95.726562 62.183594 C 95.726562 79.054688 82.050781 92.734375 65.175781 92.734375 Z M 256.878906 248.421875 C 256.878906 252.257812 253.769531 255.371094 249.933594 255.371094 L 215.421875 255.371094 C 211.585938 255.371094 208.476562 252.257812 208.476562 248.421875 L 208.476562 185.1875 C 208.476562 175.753906 211.242188 143.847656 183.824219 143.847656 C 162.554688 143.847656 158.242188 165.6875 157.375 175.488281 L 157.375 248.421875 C 157.375 252.257812 154.265625 255.371094 150.429688 255.371094 L 117.050781 255.371094 C 113.214844 255.371094 110.105469 252.257812 110.105469 248.421875 L 110.105469 112.390625 C 110.105469 108.554688 113.214844 105.445312 117.050781 105.445312 L 150.429688 105.445312 C 154.265625 105.445312 157.375 108.554688 157.375 112.390625 L 157.375 124.152344 C 165.261719 112.316406 176.980469 103.183594 201.9375 103.183594 C 257.195312 103.183594 256.878906 154.808594 256.878906 183.175781 Z M 256.878906 248.421875 "/>
</g>
</svg>
