<?xml version="1.0" encoding="UTF-8"?>
<svg xmlns="http://www.w3.org/2000/svg" xmlns:xlink="http://www.w3.org/1999/xlink" width="384pt" height="384pt" viewBox="0 0 384 384" version="1.1">
<defs>
<linearGradient id="linear0" gradientUnits="userSpaceOnUse" x1="169.994001" y1="71.986227" x2="299.493414" y2="349.054845" gradientTransform="matrix(0.749999,0,0,0.749999,0.0001425,0)">
<stop offset="0" style="stop-color:rgb(100%,27.058824%,0%);stop-opacity:1;"/>
<stop offset="1" style="stop-color:rgb(86.666667%,20.392157%,0%);stop-opacity:1;"/>
</linearGradient>
<linearGradient id="linear1" gradientUnits="userSpaceOnUse" x1="364.282524" y1="314.086836" x2="-379.586433" y2="-84.952181" gradientTransform="matrix(0.749999,0,0,0.749999,0.0001425,0)">
<stop offset="0" style="stop-color:rgb(86.666667%,20.392157%,0%);stop-opacity:0;"/>
<stop offset="1" style="stop-color:rgb(74.901961%,15.686275%,0%);stop-opacity:1;"/>
</linearGradient>
<linearGradient id="linear2" gradientUnits="userSpaceOnUse" x1="256.0003" y1="441.72568" x2="256.0003" y2="500.091496" gradientTransform="matrix(0.749999,0,0,0.749999,0.0001425,0)">
<stop offset="0" style="stop-color:rgb(86.666667%,20.392157%,0%);stop-opacity:0;"/>
<stop offset="1" style="stop-color:rgb(74.901961%,15.686275%,0%);stop-opacity:1;"/>
</linearGradient>
<linearGradient id="linear3" gradientUnits="userSpaceOnUse" x1="502.568462" y1="486.687632" x2="237.533054" y2="215.628692" gradientTransform="matrix(0.749999,0,0,0.749999,0.0001425,0)">
<stop offset="0" style="stop-color:rgb(86.666667%,20.392157%,0%);stop-opacity:0;"/>
<stop offset="1" style="stop-color:rgb(74.901961%,15.686275%,0%);stop-opacity:1;"/>
</linearGradient>
</defs>
<g id="surface1">
<path style=" stroke:none;fill-rule:nonzero;fill:url(#linear0);" d="M 315.316406 377.425781 C 233.1875 386.191406 150.8125 386.191406 68.683594 377.425781 C 35.9375 373.929688 10.070312 348.0625 6.574219 315.3125 C -2.191406 233.183594 -2.191406 150.8125 6.574219 68.683594 C 10.070312 35.933594 35.9375 10.070312 68.683594 6.574219 C 150.8125 -2.191406 233.183594 -2.191406 315.3125 6.574219 C 348.0625 10.070312 373.929688 35.933594 377.425781 68.683594 C 386.191406 150.8125 386.191406 233.183594 377.425781 315.3125 C 373.929688 348.0625 348.066406 373.929688 315.316406 377.425781 Z M 315.316406 377.425781 "/>
<path style=" stroke:none;fill-rule:nonzero;fill:url(#linear1);" d="M 356.539062 82.574219 C 353.441406 53.511719 330.488281 30.558594 301.425781 27.457031 C 228.546875 19.679688 155.453125 19.679688 82.574219 27.457031 C 53.515625 30.558594 30.558594 53.511719 27.457031 82.574219 C 19.683594 155.453125 19.683594 228.546875 27.457031 301.421875 C 30.558594 330.484375 53.515625 353.441406 82.574219 356.539062 C 155.453125 364.316406 228.546875 364.316406 301.421875 356.539062 C 330.484375 353.441406 353.441406 330.484375 356.539062 301.421875 C 364.316406 228.546875 364.316406 155.453125 356.539062 82.574219 Z M 356.539062 82.574219 "/>
<path style=" stroke:none;fill-rule:nonzero;fill:url(#linear2);" d="M 5.753906 307.351562 C 6.019531 310.007812 6.289062 312.660156 6.574219 315.316406 C 10.070312 348.0625 35.9375 373.929688 68.6875 377.425781 C 150.816406 386.191406 233.1875 386.191406 315.316406 377.425781 C 348.066406 373.929688 373.929688 348.0625 377.425781 315.316406 C 377.710938 312.660156 377.980469 310.007812 378.25 307.351562 Z M 5.753906 307.351562 "/>
<path style=" stroke:none;fill-rule:nonzero;fill:url(#linear3);" d="M 315.316406 377.425781 C 348.066406 373.929688 373.929688 348.0625 377.425781 315.3125 C 382.445312 268.296875 384.582031 221.199219 383.855469 174.109375 L 291.238281 81.496094 C 287.160156 75.753906 280.195312 72.324219 272.699219 73.140625 C 266.351562 73.789062 260.65625 77.488281 257.507812 82.980469 L 208.246094 73.140625 C 204.898438 72.390625 201.550781 74.488281 200.800781 77.886719 L 200.800781 77.984375 L 185.960938 147.730469 C 157.984375 148.183594 130.753906 156.777344 107.570312 172.464844 C 95.78125 161.371094 77.195312 161.921875 66.101562 173.765625 C 55.011719 185.554688 55.558594 204.140625 67.402344 215.230469 C 67.992188 215.785156 68.609375 216.320312 69.246094 216.828125 C 70.132812 217.9375 71.101562 219.003906 72.171875 220 C 72.761719 220.554688 73.378906 221.089844 74.015625 221.59375 C 74.386719 222.0625 74.773438 222.519531 75.179688 222.964844 C 75.113281 225.097656 75.148438 227.238281 75.292969 229.375 C 75.292969 247.722656 84.015625 264.679688 98.726562 278.328125 L 204.324219 383.929688 C 241.339844 383.535156 278.351562 381.371094 315.316406 377.425781 Z M 315.316406 377.425781 "/>
<path style=" stroke:none;fill-rule:nonzero;fill:rgb(100%,100%,100%);fill-opacity:1;" d="M 325.855469 193.796875 C 325.257812 177.613281 311.667969 164.96875 295.433594 165.519531 C 288.238281 165.769531 281.394531 168.71875 276.195312 173.664062 C 253.3125 158.078125 226.433594 149.53125 198.800781 148.933594 L 211.84375 86.230469 L 254.863281 95.273438 C 256.058594 106.316406 265.953125 114.308594 276.996094 113.109375 C 288.039062 111.90625 296.03125 102.015625 294.832031 90.976562 C 293.628906 79.933594 283.738281 71.9375 272.699219 73.140625 C 266.351562 73.789062 260.65625 77.488281 257.507812 82.980469 L 208.246094 73.140625 C 204.898438 72.390625 201.550781 74.488281 200.800781 77.886719 L 200.800781 77.984375 L 185.960938 147.730469 C 157.984375 148.183594 130.753906 156.777344 107.570312 172.464844 C 95.78125 161.371094 77.195312 161.921875 66.101562 173.765625 C 55.011719 185.554688 55.558594 204.140625 67.402344 215.230469 C 69.699219 217.382812 72.347656 219.230469 75.292969 220.527344 C 75.09375 223.476562 75.09375 226.421875 75.292969 229.375 C 75.292969 274.386719 127.753906 311.011719 192.457031 311.011719 C 257.160156 311.011719 309.621094 274.4375 309.621094 229.375 C 309.820312 226.421875 309.820312 223.476562 309.621094 220.527344 C 319.714844 215.484375 326.058594 205.09375 325.855469 193.796875 Z M 124.859375 213.933594 C 124.859375 202.84375 133.902344 193.796875 144.992188 193.796875 C 156.085938 193.796875 165.128906 202.84375 165.128906 213.933594 C 165.128906 225.027344 156.085938 234.070312 144.992188 234.070312 C 133.851562 233.96875 124.859375 225.027344 124.859375 213.933594 Z M 241.621094 269.195312 C 227.332031 279.933594 209.84375 285.429688 191.957031 284.683594 C 174.070312 285.429688 156.582031 279.933594 142.296875 269.195312 C 140.398438 266.894531 140.746094 263.449219 143.046875 261.546875 C 145.042969 259.902344 147.890625 259.902344 149.9375 261.546875 C 162.03125 270.390625 176.769531 274.890625 191.757812 274.1875 C 206.746094 274.988281 221.535156 270.691406 233.777344 261.949219 C 235.972656 259.800781 239.570312 259.851562 241.71875 262.046875 C 243.871094 264.25 243.820312 267.84375 241.621094 269.992188 Z M 238.023438 234.769531 C 226.929688 234.769531 217.890625 225.726562 217.890625 214.632812 C 217.890625 203.542969 226.929688 194.5 238.023438 194.5 C 249.113281 194.5 258.15625 203.542969 258.15625 214.632812 C 258.609375 225.726562 249.964844 235.070312 238.871094 235.515625 C 238.523438 235.515625 238.222656 235.515625 237.871094 235.515625 Z M 238.023438 234.769531 "/>
</g>
</svg>
