<?xml version="1.0" encoding="UTF-8"?>
<svg xmlns="http://www.w3.org/2000/svg" xmlns:xlink="http://www.w3.org/1999/xlink" width="384pt" height="384pt" viewBox="0 0 384 384" version="1.1">
<g id="surface1">
<path style=" stroke:none;fill-rule:nonzero;fill:rgb(1.176471%,60.784314%,89.803922%);fill-opacity:1;" d="M 384 192 C 384 298.039062 298.039062 384 192 384 C 85.960938 384 0 298.039062 0 192 C 0 85.960938 85.960938 0 192 0 C 298.039062 0 384 85.960938 384 192 Z M 384 192 "/>
<path style=" stroke:none;fill-rule:nonzero;fill:rgb(100%,100%,100%);fill-opacity:1;" d="M 87.855469 187.839844 L 272.976562 116.464844 C 281.566406 113.359375 289.070312 118.558594 286.289062 131.550781 L 286.304688 131.535156 L 254.785156 280.03125 C 252.449219 290.558594 246.191406 293.121094 237.441406 288.160156 L 189.441406 252.785156 L 166.289062 275.089844 C 163.726562 277.648438 161.566406 279.808594 156.609375 279.808594 L 160.015625 230.960938 L 248.976562 150.59375 C 252.847656 147.183594 248.113281 145.265625 243.007812 148.65625 L 133.070312 217.871094 L 85.679688 203.089844 C 75.390625 199.824219 75.167969 192.800781 87.855469 187.839844 Z M 87.855469 187.839844 "/>
</g>
</svg>
