<?xml version="1.0" encoding="UTF-8"?>
<svg xmlns="http://www.w3.org/2000/svg" xmlns:xlink="http://www.w3.org/1999/xlink" width="384pt" height="384pt" viewBox="0 0 384 384" version="1.1">
<g id="surface1">
<path style=" stroke:none;fill-rule:nonzero;fill:rgb(33.333333%,67.45098%,93.333333%);fill-opacity:1;" d="M 344.832031 123.984375 C 344.832031 120.511719 344.703125 117.136719 344.542969 113.808594 C 360.160156 102.71875 373.296875 88.878906 384 72.945312 L 384 72.929688 C 369.710938 79.183594 354.511719 83.34375 338.640625 85.359375 C 354.960938 75.617188 367.425781 60.304688 373.28125 41.855469 C 358.0625 50.929688 341.265625 57.328125 323.359375 60.910156 C 308.910156 45.519531 288.320312 36 265.855469 36 C 222.273438 36 187.183594 71.375 187.183594 114.734375 C 187.183594 120.976562 187.710938 126.976562 189.007812 132.6875 C 123.566406 129.488281 65.648438 98.128906 26.734375 50.335938 C 19.953125 62.128906 15.953125 75.617188 15.953125 90.128906 C 15.953125 117.390625 29.984375 141.550781 50.929688 155.550781 C 38.273438 155.3125 25.871094 151.632812 15.359375 145.855469 L 15.359375 146.71875 C 15.359375 184.976562 42.640625 216.753906 78.433594 224.078125 C 66.398438 227.375 51.585938 227.246094 42.894531 225.328125 C 53.089844 256.496094 82.046875 279.425781 116.449219 280.175781 C 89.664062 301.121094 55.648438 313.742188 18.832031 313.742188 C 12.382812 313.742188 6.191406 313.457031 0 312.671875 C 34.878906 335.152344 76.191406 348 120.769531 348 C 265.632812 348 344.832031 228 344.832031 123.984375 Z M 344.832031 123.984375 "/>
</g>
</svg>
