<?xml version="1.0" encoding="UTF-8"?>
<svg xmlns="http://www.w3.org/2000/svg" xmlns:xlink="http://www.w3.org/1999/xlink" width="384pt" height="384pt" viewBox="0 0 384 384" version="1.1">
<g id="surface1">
<path style=" stroke:none;fill-rule:nonzero;fill:rgb(92.54902%,93.72549%,94.509804%);fill-opacity:1;" d="M 328.320312 55.183594 C 291.839844 19.921875 243.839844 0 192.71875 0 C 46 0 -46.128906 158.960938 27.136719 285.40625 L 0 384 L 101.359375 357.566406 C 145.519531 381.425781 181.695312 379.3125 192.816406 380.71875 C 362.945312 380.71875 447.632812 174.894531 328.078125 55.808594 Z M 328.320312 55.183594 "/>
<path style=" stroke:none;fill-rule:nonzero;fill:rgb(29.803922%,68.627451%,31.372549%);fill-opacity:1;" d="M 193.070312 348.015625 L 192.976562 348 L 192.71875 348 C 141.808594 348 109.28125 323.886719 106.078125 322.496094 L 46.078125 338.097656 L 62.160156 279.777344 L 58.335938 273.777344 C 42.496094 248.558594 34.078125 219.519531 34.078125 189.617188 C 34.078125 48.929688 206 -21.425781 305.488281 78.015625 C 404.734375 176.414062 335.054688 348.015625 193.070312 348.015625 Z M 193.070312 348.015625 "/>
<path style=" stroke:none;fill-rule:nonzero;fill:rgb(98.039216%,98.039216%,98.039216%);fill-opacity:1;" d="M 280.113281 228.910156 L 279.96875 230.113281 C 275.152344 227.710938 251.695312 216.238281 247.328125 214.65625 C 237.519531 211.023438 240.289062 214.078125 221.457031 235.648438 C 218.65625 238.769531 215.871094 239.007812 211.121094 236.847656 C 206.320312 234.449219 190.910156 229.40625 172.671875 213.089844 C 158.464844 200.367188 148.929688 184.769531 146.113281 179.96875 C 141.425781 171.871094 151.230469 170.71875 160.160156 153.824219 C 161.761719 150.464844 160.945312 147.824219 159.761719 145.441406 C 158.558594 143.039062 149.007812 119.519531 145.007812 110.144531 C 141.167969 100.800781 137.214844 101.984375 134.257812 101.984375 C 125.039062 101.183594 118.304688 101.3125 112.367188 107.488281 C 86.542969 135.871094 93.054688 165.152344 115.152344 196.289062 C 158.574219 253.121094 181.710938 263.585938 224.015625 278.113281 C 235.441406 281.742188 245.855469 281.230469 254.097656 280.046875 C 263.28125 278.59375 282.367188 268.511719 286.351562 257.230469 C 290.433594 245.953125 290.433594 236.59375 289.230469 234.433594 C 288.046875 232.273438 284.910156 231.070312 280.113281 228.910156 Z M 280.113281 228.910156 "/>
</g>
</svg>
